<?xml version="1.0" standalone="no"?>
<!DOCTYPE svg PUBLIC "-//W3C//DTD SVG 20010904//EN"
 "http://www.w3.org/TR/2001/REC-SVG-20010904/DTD/svg10.dtd">
<svg version="1.0" xmlns="http://www.w3.org/2000/svg"
 width="864.000000pt" height="864.000000pt" viewBox="0 0 864.000000 864.000000"
 preserveAspectRatio="xMidYMid meet">
<metadata>
Created by potrace 1.11, written by Peter Selinger 2001-2013
</metadata>
<g transform="translate(0.000000,864.000000) scale(0.100000,-0.100000)"
fill="#000000" stroke="none">
<path d="M5042 8578 c-36 -15 -71 -28 -76 -28 -5 0 -17 -7 -26 -15 -9 -8 -25
-16 -36 -18 -10 -2 -46 -16 -79 -31 -33 -15 -80 -36 -105 -46 -25 -10 -72 -31
-105 -46 -33 -15 -64 -29 -70 -30 -9 -2 -514 -220 -600 -259 -16 -7 -64 -28
-105 -45 -82 -35 -148 -64 -195 -85 -16 -7 -115 -50 -220 -95 -104 -45 -208
-90 -232 -101 -23 -10 -45 -19 -48 -19 -13 0 -261 -125 -313 -157 -29 -18 -55
-33 -58 -33 -3 0 -39 -22 -81 -50 -42 -27 -78 -50 -80 -50 -2 0 -9 -5 -16 -10
-47 -39 -62 -50 -78 -55 -11 -4 -19 -10 -19 -14 0 -5 -17 -20 -37 -33 -21 -14
-49 -36 -64 -49 -14 -13 -42 -37 -64 -53 -51 -40 -300 -287 -355 -356 -25 -30
-52 -61 -60 -70 -8 -8 -26 -31 -40 -50 -14 -19 -30 -42 -37 -50 -49 -60 -173
-246 -173 -260 0 -6 -4 -10 -9 -10 -5 0 -13 -10 -17 -22 -4 -13 -10 -25 -14
-28 -3 -3 -14 -18 -22 -35 -9 -16 -43 -82 -76 -146 -34 -64 -58 -120 -55 -123
4 -3 2 -6 -3 -6 -9 0 -35 -57 -35 -77 -1 -5 -5 -13 -9 -18 -10 -12 -100 -250
-100 -264 0 -5 -5 -22 -12 -38 -6 -15 -12 -32 -14 -38 -1 -5 -13 -55 -27 -110
-14 -55 -28 -113 -33 -130 -4 -16 -9 -39 -11 -50 -2 -11 -8 -45 -14 -75 -17
-91 -22 -129 -35 -250 -4 -36 -8 -76 -9 -90 -2 -14 -3 -48 -4 -76 -1 -52 -1
-52 -38 -59 -282 -52 -547 -273 -656 -547 -15 -37 -29 -82 -32 -99 -3 -18 -8
-35 -10 -38 -23 -38 -22 -264 2 -361 3 -14 8 -34 10 -45 1 -11 7 -29 12 -40 4
-11 19 -45 32 -75 27 -63 94 -169 147 -230 107 -126 326 -252 479 -276 21 -3
41 -8 44 -10 3 -2 7 -83 7 -181 2 -226 11 -383 28 -483 2 -14 7 -43 10 -65 10
-61 50 -242 69 -310 9 -33 18 -64 19 -70 2 -5 5 -17 8 -25 3 -8 16 -44 28 -80
11 -36 25 -74 30 -85 5 -11 21 -49 36 -85 27 -67 116 -249 151 -310 40 -70 88
-145 100 -158 7 -7 13 -17 13 -22 0 -5 6 -15 13 -22 7 -7 20 -25 30 -40 73
-116 332 -397 462 -504 33 -27 71 -59 85 -71 14 -13 28 -23 31 -23 3 0 17 -10
30 -21 27 -24 195 -139 203 -139 3 0 21 -11 40 -23 19 -13 67 -41 108 -61 40
-21 80 -41 88 -46 24 -13 130 -60 136 -60 3 0 20 -7 37 -15 58 -26 202 -75
224 -75 12 0 24 -4 27 -9 3 -4 34 -14 68 -21 35 -7 68 -15 73 -16 19 -6 110
-24 150 -30 55 -8 74 -11 115 -17 174 -28 1375 -29 1480 -2 8 2 40 6 71 10 60
6 90 11 117 19 9 3 33 7 52 10 29 5 123 28 203 51 9 3 25 7 35 9 117 31 494
198 545 244 9 8 17 12 17 7 0 -4 15 4 34 19 19 14 37 26 40 26 8 0 141 94 144
102 2 4 8 8 13 8 5 0 17 6 26 14 10 8 38 31 63 51 164 131 352 321 455 460 16
22 33 42 36 45 28 23 249 377 249 399 0 6 5 11 12 11 6 0 8 3 5 6 -4 4 5 28
18 53 36 66 94 198 101 229 4 15 12 36 18 47 5 11 11 22 11 25 0 3 10 37 22
75 51 163 83 292 98 402 3 21 8 49 12 63 6 26 11 73 18 170 2 30 4 55 5 55 2
0 9 330 10 438 0 21 5 27 23 27 65 1 252 84 342 153 86 65 246 253 238 279 -1
3 4 12 12 18 8 7 15 21 15 31 0 11 4 19 8 19 9 0 57 149 68 210 21 117 7 295
-32 415 -91 283 -324 501 -617 576 -45 12 -85 26 -88 31 -3 5 -7 35 -8 66 -1
31 -4 73 -6 92 -9 85 -15 136 -20 155 -2 11 -7 47 -11 80 -3 33 -9 65 -13 70
-4 6 -8 22 -10 37 -1 15 -16 78 -32 140 -31 118 -33 124 -41 148 -3 8 -16 44
-28 80 -26 75 -39 107 -108 261 -16 35 -43 93 -59 129 -17 36 -39 85 -51 110
-11 25 -37 81 -58 125 -21 44 -39 82 -39 85 0 3 -10 25 -22 50 -32 66 -109
235 -168 364 -7 17 -36 80 -64 140 -28 59 -51 110 -51 112 0 2 -19 43 -41 91
-48 102 -77 164 -149 323 -122 268 -139 299 -181 330 -37 27 -60 35 -124 44
-37 5 -103 -19 -340 -125 -27 -12 -52 -23 -55 -24 -3 -1 -18 -7 -33 -13 -16
-7 -30 -12 -33 -12 -4 0 -45 84 -49 100 0 3 -9 23 -19 45 -10 22 -27 58 -37
80 -9 22 -36 80 -58 128 -23 49 -41 94 -41 101 0 7 -4 16 -9 22 -5 5 -28 52
-51 104 -108 248 -127 277 -205 311 -59 26 -119 22 -203 -13z m-1225 -1531
c24 -22 46 -52 50 -66 3 -14 10 -32 16 -39 15 -19 2 -123 -21 -168 -60 -118
-221 -155 -342 -79 -50 32 -111 147 -105 203 6 69 22 104 69 146 96 87 241 89
333 3z m-629 -260 c71 -67 101 -164 76 -247 -17 -57 -33 -75 -149 -165 -119
-93 -300 -274 -347 -346 -28 -44 -101 -115 -136 -133 -42 -22 -105 -27 -160
-14 -83 20 -162 129 -164 225 0 38 25 118 42 133 3 3 19 23 36 45 16 22 34 45
39 51 6 7 26 31 45 55 90 112 286 295 430 400 35 26 83 45 130 51 43 6 123
-22 158 -55z m463 -1479 c52 -51 117 -111 144 -133 27 -22 60 -49 72 -60 27
-24 41 -35 73 -57 14 -10 50 -35 80 -57 104 -76 309 -190 450 -251 131 -57
161 -69 183 -75 4 -2 9 -4 12 -5 3 -1 8 -3 13 -4 4 -1 39 -12 77 -25 39 -12
77 -24 85 -27 64 -17 141 -35 170 -40 19 -3 44 -8 55 -11 36 -12 95 -20 280
-39 95 -10 421 -10 520 0 44 5 94 10 110 11 17 1 57 8 90 14 33 7 79 15 101
17 l42 5 0 -423 c1 -233 3 -432 5 -443 4 -17 19 -101 22 -115 0 -3 3 -9 6 -15
4 -5 12 -28 19 -50 7 -22 16 -42 19 -45 3 -3 17 -26 30 -52 13 -27 28 -48 32
-48 5 0 9 -5 9 -11 0 -6 6 -16 13 -23 6 -7 26 -29 44 -49 110 -126 301 -208
484 -208 l85 0 -2 -242 c-2 -224 -7 -325 -19 -387 -3 -14 -7 -41 -10 -60 -8
-58 -26 -141 -47 -215 -10 -38 -21 -77 -23 -85 -14 -55 -74 -208 -118 -303
-46 -97 -150 -282 -166 -297 -4 -3 -21 -27 -40 -55 -57 -83 -170 -215 -269
-312 -51 -51 -95 -93 -97 -93 -2 0 -14 -9 -27 -20 -12 -11 -36 -31 -53 -46
-16 -14 -75 -55 -130 -92 -55 -36 -102 -69 -105 -72 -27 -28 -420 -204 -485
-216 -11 -2 -47 -12 -80 -22 -33 -11 -68 -18 -78 -16 -9 1 -17 -2 -17 -6 0 -5
-8 -8 -17 -8 -17 1 -29 -1 -103 -17 -114 -23 -256 -28 -785 -28 -549 0 -664 5
-790 33 -26 6 -50 8 -53 6 -2 -3 -12 -1 -22 4 -9 5 -30 12 -46 14 -16 3 -60
15 -99 26 -38 11 -77 22 -85 24 -57 15 -212 80 -315 134 -96 49 -104 54 -152
85 -24 15 -45 27 -48 27 -2 0 -13 6 -22 14 -10 8 -56 43 -103 78 -111 83 -118
89 -219 188 -115 113 -184 192 -249 283 -20 29 -40 53 -44 55 -5 2 -8 10 -8
18 0 8 -4 14 -9 14 -5 0 -14 14 -21 30 -7 17 -16 30 -21 30 -5 0 -9 4 -9 10 0
5 -20 44 -45 86 -25 41 -45 77 -45 80 0 2 -16 36 -36 76 -64 131 -146 366
-170 485 -2 13 -7 35 -10 50 -15 71 -25 132 -29 173 -2 25 -7 61 -10 80 -3 19
-8 140 -11 268 -4 186 -2 232 8 233 7 0 58 2 113 4 112 5 107 4 190 30 33 10
62 19 65 19 21 3 145 85 186 124 59 54 124 134 124 151 0 6 3 11 8 11 4 0 12
12 19 28 85 195 84 189 85 727 0 253 3 465 5 472 3 6 18 15 34 18 16 4 31 11
34 16 4 5 13 9 21 9 21 0 191 75 279 123 39 21 82 42 98 48 15 6 27 14 27 18
0 5 18 16 40 26 22 10 40 22 40 27 0 4 4 8 10 8 9 0 177 115 190 130 3 3 21
18 40 34 85 69 159 136 224 204 38 39 73 72 76 72 3 0 49 -42 101 -92z m3912
-985 c86 -53 163 -173 173 -271 3 -26 7 -52 9 -58 7 -24 -24 -161 -46 -204
-28 -53 -121 -150 -143 -150 -9 0 -16 -4 -16 -8 0 -10 -59 -32 -64 -24 -2 4
-3 177 -3 384 l0 376 26 -11 c14 -6 43 -22 64 -34z m-6396 -353 c0 -209 -3
-380 -7 -380 -18 0 -98 52 -135 87 -45 43 -95 115 -95 137 0 8 -4 17 -9 20 -8
5 -24 93 -25 136 -2 94 47 205 123 280 47 46 118 96 142 99 4 1 6 -170 6 -379z"/>
<path d="M3240 3210 c-109 -23 -193 -84 -239 -174 -30 -58 -35 -81 -34 -166 0
-131 68 -235 191 -293 50 -23 76 -29 130 -29 67 0 77 2 121 16 41 14 113 64
141 98 75 93 100 226 61 328 -23 62 -39 86 -91 137 -67 66 -187 102 -280 83z"/>
<path d="M5285 3209 c-105 -20 -199 -92 -244 -188 -22 -47 -26 -70 -26 -141 0
-71 4 -94 26 -140 70 -146 231 -223 382 -184 45 12 157 71 157 84 0 3 14 21
30 40 62 72 84 216 49 313 -55 151 -218 245 -374 216z"/>
<path d="M3949 2330 c-79 -23 -110 -74 -104 -173 7 -122 49 -213 140 -302 116
-115 267 -162 426 -133 186 33 352 204 383 393 1 6 5 16 9 23 5 6 5 12 0 12
-4 0 -8 15 -9 32 -2 65 -4 73 -29 102 -28 33 -87 56 -129 50 -73 -9 -117 -68
-131 -177 -12 -90 -114 -166 -207 -153 -90 13 -152 76 -167 174 -5 34 -18 76
-28 93 -29 49 -97 75 -154 59z"/>
</g>
</svg>
